C:\Users\u0150099\Documents\PredSim_dev\Subjects\test_1\MuscleAnalysis\dummy_motion.mot
version=1
nRows=13
nColumns=32
inDegrees=no
endheader
                time	         pelvis_tilt	         pelvis_list	     pelvis_rotation	           pelvis_tx	           pelvis_ty	           pelvis_tz	       hip_flexion_l	     hip_adduction_l	      hip_rotation_l	       hip_flexion_r	     hip_adduction_r	      hip_rotation_r	        knee_angle_l	        knee_angle_r	       ankle_angle_l	       ankle_angle_r	    subtalar_angle_l	    subtalar_angle_r	         mtp_angle_l	         mtp_angle_r	    lumbar_extension	      lumbar_bending	     lumbar_rotation	          arm_flex_l	           arm_add_l	           arm_rot_l	          arm_flex_r	           arm_add_r	           arm_rot_r	        elbow_flex_l	        elbow_flex_r	
          0.01000000	          0.00000000	          0.00000000	          0.00000000	          0.00000000	          0.00000000	          0.00000000	         -0.68870289	         -0.12595864	         -0.29564904	          0.65711560	          0.28690556	         -0.16482979	         -0.09871267	         -0.72204820	          0.16164755	         -0.51760028	         -0.13614790	          0.04469608	         -0.26657129	          0.39340005	          0.39773064	          0.05915230	          0.32141783	          0.28470999	          0.37799498	         -0.48991219	          0.00487675	         -0.23479312	         -0.11361600	          0.19729499	          0.37984168	
          0.02000000	          0.00000000	          0.00000000	          0.00000000	          0.00000000	          0.00000000	          0.00000000	         -0.45410013	          0.25870530	         -0.25414147	          0.83820682	          0.12557737	         -0.37770873	         -0.42065709	         -0.71759038	         -0.06733145	          0.21974713	         -0.14722459	         -0.20873995	         -0.24595504	          0.70188901	          0.26189159	         -0.13988170	          0.34351851	         -0.22569610	         -0.32483281	         -0.34888340	         -0.31626375	          0.11407633	          0.16522091	          0.43118399	         -0.01829808	
          0.03000000	          0.00000000	          0.00000000	          0.00000000	          0.00000000	          0.00000000	          0.00000000	         -0.41910671	          0.02681343	         -0.11420482	         -0.17954245	          0.51193752	         -0.03327545	         -0.58780234	         -0.55292052	          0.43882455	         -0.14104069	          0.08474627	          0.20083616	          0.25680661	          0.18891714	         -0.18057604	          0.06699290	         -0.30926577	         -0.06487334	         -0.21708674	          0.05791042	         -0.08071518	         -0.37991703	          0.22953725	          0.50978688	          0.01108301	
          0.04000000	          0.00000000	          0.00000000	          0.00000000	          0.00000000	          0.00000000	          0.00000000	         -0.40155103	         -0.15833730	         -0.16817370	         -0.58916253	          0.41714792	         -0.06268401	         -0.28010498	         -0.45867574	          0.08001704	         -0.44281025	         -0.19129803	          0.24326360	         -0.14515024	          0.07886509	          0.38681330	         -0.43354934	         -0.05331374	         -0.06689051	         -0.10358165	          0.16620131	          0.12834044	          0.46833663	          0.08328190	         -0.16209511	         -0.01491191	
          0.05000000	          0.00000000	          0.00000000	          0.00000000	          0.00000000	          0.00000000	          0.00000000	         -0.41162326	          0.24496669	          0.46403942	         -0.02470367	         -0.40328592	          0.35278384	         -0.82712473	         -0.42438866	         -0.29855908	          0.27756536	          0.43044678	         -0.08996691	         -0.21561665	          0.55966003	          0.34282723	         -0.14647556	          0.44535002	          0.06156154	          0.38143763	          0.26277257	          0.48928111	         -0.24417518	         -0.18555436	         -0.36149585	          0.05330942	
          0.06000000	          0.00000000	          0.00000000	          0.00000000	          0.00000000	          0.00000000	          0.00000000	         -0.49842196	          0.51225511	         -0.11205807	         -0.82946046	          0.33080800	         -0.31891901	         -0.06139475	         -0.67797421	         -0.27959480	         -0.01634178	         -0.02359717	         -0.26078426	         -0.01456744	          0.65800929	          0.22825693	         -0.08184922	         -0.29341059	          0.15654154	         -0.25929943	         -0.11845172	         -0.34594975	         -0.01859013	         -0.35964448	         -0.38277860	          0.31177952	
          0.07000000	          0.00000000	          0.00000000	          0.00000000	          0.00000000	          0.00000000	          0.00000000	          0.65090622	         -0.22566359	         -0.00429085	         -0.01237898	         -0.07802469	          0.49646098	         -1.23180927	         -1.13997254	         -0.12210920	          0.01173777	         -0.21258139	          0.26077685	         -0.31739902	         -0.02755867	          0.25232087	          0.34129116	          0.00492094	         -0.21889361	          0.33629421	         -0.24024857	         -0.33934582	          0.15494358	         -0.48181227	         -0.05256383	         -0.28008367	
          0.08000000	          0.00000000	          0.00000000	          0.00000000	          0.00000000	          0.00000000	          0.00000000	          0.78648089	         -0.24466312	         -0.41344376	         -0.84289921	         -0.28262703	          0.25756328	         -0.44446360	         -1.16737682	          0.25428842	          0.12421840	          0.40367394	         -0.32112523	          0.35713991	          0.19344092	          0.39264460	          0.42456547	         -0.21860166	          0.39331644	          0.21387206	          0.49867848	          0.26812020	          0.41095951	         -0.36220240	          0.17567289	         -0.20281179	
          0.09000000	          0.00000000	          0.00000000	          0.00000000	          0.00000000	          0.00000000	          0.00000000	         -0.37923800	          0.23096815	          0.21260971	          0.77703847	         -0.13069177	         -0.48279910	         -0.94395242	         -0.11990187	          0.07795301	          0.51624228	          0.15234627	          0.33812507	          0.25506094	          0.30620707	         -0.51318682	         -0.37287039	         -0.49958309	         -0.44980926	         -0.48653285	         -0.13758597	         -0.07103085	         -0.00789451	          0.30491606	         -0.07404510	          0.49044276	
          0.10000000	          0.00000000	          0.00000000	          0.00000000	          0.00000000	          0.00000000	          0.00000000	         -0.61640145	          0.18189327	         -0.28316211	         -0.31402641	          0.21282749	          0.32167261	         -0.51321729	         -0.26469902	          0.14798120	         -0.43637836	         -0.40296661	         -0.22035261	          0.51107793	          0.29081440	         -0.03304484	         -0.14284424	         -0.16836092	         -0.24124400	          0.03597312	         -0.46846687	         -0.38362700	         -0.40525502	         -0.17569662	          0.34296961	          0.06747326	
          0.11000000	          0.00000000	          0.00000000	          0.00000000	          0.00000000	          0.00000000	          0.00000000	         -0.19795772	         -0.18191883	          0.14486782	          0.26905307	          0.33757431	          0.10940315	         -1.33660310	         -0.73612519	         -0.40811317	          0.25988472	         -0.09468486	         -0.43912979	          0.87164528	          0.62251971	         -0.15743315	         -0.02939022	          0.48072436	          0.13959026	         -0.18630726	         -0.25644238	          0.01889220	         -0.47585716	         -0.47919049	         -0.24468567	          0.11701901	
          0.12000000	          0.00000000	          0.00000000	          0.00000000	          0.00000000	          0.00000000	          0.00000000	         -0.79001290	         -0.27701101	         -0.38358077	          0.53401447	         -0.01846865	          0.48231439	         -0.69524497	         -0.11514173	          0.51536588	         -0.49743100	         -0.28611823	         -0.07375103	         -0.30061795	          0.82815783	         -0.07728297	          0.18184595	         -0.39706383	         -0.41561367	          0.34562169	          0.10910048	          0.41124626	          0.16855721	         -0.29405970	          0.25358902	          0.51589059	
          0.13000000	          0.00000000	          0.00000000	          0.00000000	          0.00000000	          0.00000000	          0.00000000	         -0.35989289	          0.26429536	         -0.18587312	         -0.40193728	          0.45534147	          0.31793142	         -1.45527329	         -1.42960201	         -0.11493659	         -0.38694095	         -0.28682975	          0.17589443	          0.73113438	          0.74846044	          0.37219891	         -0.31257961	         -0.15156701	         -0.25044366	         -0.21687187	          0.15213605	          0.45581807	          0.50178794	          0.51894538	         -0.42987839	          0.40147257	
